<?xml version="1.0" encoding="UTF-8"?>
<svg xmlns="http://www.w3.org/2000/svg" xmlns:xlink="http://www.w3.org/1999/xlink" width="32px" height="32px" viewBox="0 0 32 32" version="1.1">
<g id="surface1">
<path style="fill-rule:nonzero;fill:rgb(100%,100%,100%);fill-opacity:1;stroke-width:28;stroke-linecap:butt;stroke-linejoin:miter;stroke:rgb(0.392157%,58.823532%,53.725493%);stroke-opacity:1;stroke-miterlimit:4;" d="M 257.556641 27.634766 C 256.765625 22.229492 252.546875 17.74707 247.141602 16.956055 C 225.125 13.923828 202.581055 17.878906 182.805664 28.425781 L 108.845703 67.844727 C 89.070312 78.391602 73.25 94.871094 63.362305 115.041992 L 26.711914 190.583984 C 16.956055 210.754883 13.660156 233.5625 17.615234 255.447266 L 32.117188 338.240234 C 35.94043 360.388672 46.750977 380.55957 62.834961 396.248047 L 123.083984 454.651367 C 139.167969 470.208008 159.734375 480.227539 181.750977 483.259766 L 264.807617 494.993164 C 286.956055 498.157227 309.368164 494.070312 329.143555 483.655273 L 403.235352 444.104492 C 422.878906 433.557617 438.831055 417.078125 448.586914 396.907227 L 485.237305 321.365234 C 495.125 301.326172 498.289062 278.518555 494.46582 256.501953 C 493.542969 251.228516 489.060547 247.141602 483.787109 246.350586 C 432.239258 238.176758 390.974609 199.285156 379.241211 149.055664 C 377.527344 141.40918 371.331055 135.608398 363.552734 134.421875 C 308.972656 125.720703 265.862305 82.34668 257.424805 27.634766 Z M 207.986328 144.045898 C 225.652344 144.045898 240.022461 158.28418 240.022461 175.950195 C 240.022461 193.616211 225.652344 207.986328 207.986328 207.986328 C 190.320312 207.986328 175.950195 193.616211 175.950195 175.950195 C 175.950195 158.28418 190.320312 144.045898 207.986328 144.045898 Z M 144.045898 335.999023 C 144.045898 318.333008 158.28418 303.962891 175.950195 303.962891 C 193.616211 303.962891 207.986328 318.333008 207.986328 335.999023 C 207.986328 353.665039 193.616211 368.035156 175.950195 368.035156 C 158.28418 368.035156 144.045898 353.665039 144.045898 335.999023 Z M 368.035156 272.058594 C 385.701172 272.058594 399.939453 286.296875 399.939453 303.962891 C 399.939453 321.628906 385.701172 335.999023 368.035156 335.999023 C 350.369141 335.999023 335.999023 321.628906 335.999023 303.962891 C 335.999023 286.296875 350.369141 272.058594 368.035156 272.058594 Z M 368.035156 272.058594 " transform="matrix(0.0296296,0,0,0.0296296,8.82963,8.82963)"/>
</g>
</svg>
