<?xml version="1.0" encoding="UTF-8" standalone="no" ?>
<!DOCTYPE svg PUBLIC "-//W3C//DTD SVG 1.1//EN" "http://www.w3.org/Graphics/SVG/1.1/DTD/svg11.dtd">
<svg xmlns="http://www.w3.org/2000/svg" xmlns:xlink="http://www.w3.org/1999/xlink" version="1.1" width="1080" height="1080" viewBox="0 0 1080 1080" xml:space="preserve">
<desc>Created with Fabric.js 5.2.4</desc>
<defs>
</defs>
<rect x="0" y="0" width="100%" height="100%" fill="transparent"></rect>
<g transform="matrix(1 0 0 1 540 540)" id="f4ac0a96-6100-4b48-9770-686a2b7013e9"  >
<rect style="stroke: none; stroke-width: 1; stroke-dasharray: none; stroke-linecap: butt; stroke-dashoffset: 0; stroke-linejoin: miter; stroke-miterlimit: 4; fill: rgb(255,255,255); fill-rule: nonzero; opacity: 1; visibility: hidden;" vector-effect="non-scaling-stroke"  x="-540" y="-540" rx="0" ry="0" width="1080" height="1080" />
</g>
<g transform="matrix(1 0 0 1 540 540)" id="e1255204-9202-4296-bfd1-f4a911806775"  >
</g>
<g transform="matrix(1 0 0 1 554 554)" id="0212c8f1-3396-40a8-a37e-ca1bfc5b847d"  >
<path style="stroke: rgb(1,150,137); stroke-width: 28; stroke-dasharray: none; stroke-linecap: butt; stroke-dashoffset: 0; stroke-linejoin: miter; stroke-miterlimit: 4; fill: rgb(255,255,255); fill-rule: nonzero; opacity: 1;" vector-effect="non-scaling-stroke"  transform=" translate(-256, -256)" d="M 257.5 27.6 C 256.7 22.200000000000003 252.6 17.8 247.2 17 C 225.1 13.9 202.6 17.9 182.79999999999998 28.4 L 108.79999999999998 67.9 C 89.1 78.4 73.2 94.9 63.4 115 L 26.7 190.6 C 16.9 210.7 13.7 233.5 17.6 255.5 L 32.1 338.3 C 36 360.40000000000003 46.7 380.6 62.8 396.2 L 123.1 454.59999999999997 C 139.2 470.2 159.7 480.2 181.8 483.29999999999995 L 264.8 494.99999999999994 C 286.90000000000003 498.09999999999997 309.40000000000003 494.09999999999997 329.20000000000005 483.59999999999997 L 403.20000000000005 444.09999999999997 C 422.90000000000003 433.59999999999997 438.80000000000007 417.09999999999997 448.6 396.9 L 485.3 321.4 C 495.1 301.29999999999995 498.3 278.5 494.40000000000003 256.5 C 493.50000000000006 251.2 489.1 247.2 483.8 246.4 C 432.3 238.20000000000002 391 199.3 379.3 149 C 377.5 141.4 371.3 135.6 363.6 134.4 C 309 125.7 265.90000000000003 82.4 257.40000000000003 27.60000000000001 z M 208 144 C 225.67311199458538 144 240 158.32688800541462 240 176 C 240 193.67311199458538 225.6731119945854 208 208 208 C 190.32688800541462 208 176 193.67311199458538 176 176 C 176 158.32688800541462 190.32688800541462 144 208 144 z M 144 336 C 144 318.3268880054146 158.32688800541462 304 176 304 C 193.67311199458538 304 208 318.3268880054146 208 336 C 208 353.6731119945854 193.67311199458538 368 176 368 C 158.32688800541462 368 144 353.6731119945854 144 336 z M 368 272 C 385.6731119945854 272 400 286.3268880054146 400 304 C 400 321.6731119945854 385.6731119945854 336 368 336 C 350.3268880054146 336 336 321.6731119945854 336 304 C 336 286.3268880054146 350.3268880054146 272 368 272 z" stroke-linecap="round" />
</g>
<g transform="matrix(NaN NaN NaN NaN 0 0)"  >
<g style=""   >
</g>
</g>
</svg>